<!-- Generated by IcoMoon.io -->
<svg version="1.1" xmlns="http://www.w3.org/2000/svg" width="32" height="32" viewBox="0 0 32 32">
<title>about-us</title>
<path fill="#fff" d="M15.996 15.126c2.366 0 4.268-1.913 4.268-4.264 0.003-2.358-1.902-4.265-4.268-4.265-2.35 0-4.257 1.907-4.257 4.265 0 2.354 1.908 4.264 4.257 4.264z"></path>
<path fill="#fff" d="M19.419 15.821h-6.836c-1.222 0-2.223 1.121-2.223 2.495v6.866c0 0.076 0.038 0.143 0.043 0.221h11.194c0.008-0.078 0.040-0.146 0.040-0.221v-6.866c0.004-1.375-0.997-2.495-2.216-2.495z"></path>
<path fill="#fff" d="M27.476 17.161c1.899 0 3.422-1.528 3.422-3.417s-1.523-3.419-3.422-3.419c-1.886 0-3.411 1.531-3.411 3.419-0.004 1.887 1.526 3.417 3.411 3.417z"></path>
<path fill="#fff" d="M30.222 17.719h-5.478c-0.983 0-1.787 0.898-1.787 2.004v5.501c0 0.059 0.029 0.115 0.033 0.18h8.978c0.004-0.065 0.032-0.121 0.032-0.18v-5.501c0.004-1.106-0.798-2.004-1.778-2.004z"></path>
<path fill="#fff" d="M4.521 17.161c1.896 0 3.421-1.528 3.421-3.417s-1.524-3.419-3.421-3.419c-1.887 0-3.413 1.531-3.413 3.419s1.526 3.417 3.413 3.417v0z"></path>
<path fill="#fff" d="M7.265 17.719h-5.483c-0.98 0-1.781 0.898-1.781 2.004v5.501c0 0.059 0.029 0.115 0.034 0.18h8.978c0.004-0.065 0.030-0.121 0.030-0.18v-5.501c0.003-1.106-0.799-2.004-1.778-2.004z"></path>
</svg>
