<!-- Generated by IcoMoon.io -->
<svg version="1.1" xmlns="http://www.w3.org/2000/svg" width="32" height="32" viewBox="0 0 32 32">
<title>contact</title>
<path fill="#fff" d="M31.786 7.485l-7.271-7.271c-0.088-0.089-0.31-0.214-0.515-0.214h-21.091c-1.604 0-2.909 1.305-2.909 2.909v26.182c0 1.604 1.305 2.909 2.909 2.909h26.182c1.604 0 2.909-1.305 2.909-2.909v-21.091c-0-0.191-0.088-0.389-0.214-0.515zM16 5.818c2.807 0 5.091 2.284 5.091 5.091s-2.284 5.091-5.091 5.091-5.091-2.284-5.091-5.091c0-2.807 2.284-5.091 5.091-5.091zM26.182 24.091c0 1.153-0.933 2.091-2.078 2.091h-16.207c-1.146 0-2.078-0.938-2.078-2.091v-0.665c0-1.643 0.906-3.133 2.364-3.889 1.831-0.95 4.674-2.082 7.818-2.082s5.986 1.132 7.817 2.082c1.459 0.756 2.364 2.246 2.364 3.889v0.665zM26.182 7.273c-0.802 0-1.455-0.653-1.455-1.455v-3.335l4.79 4.79h-3.335z"></path>
</svg>
