<!-- Generated by IcoMoon.io -->
<svg version="1.1" xmlns="http://www.w3.org/2000/svg" width="32" height="32" viewBox="0 0 32 32">
<title>home</title>
<path fill="#fff" d="M16 8.408l-11.413 9.409c0 0.013-0.003 0.033-0.010 0.059s-0.010 0.046-0.010 0.059v9.527c0 0.344 0.126 0.642 0.377 0.893s0.549 0.378 0.893 0.378h7.622v-7.622h5.082v7.622h7.621c0.344 0 0.642-0.126 0.893-0.378s0.378-0.549 0.378-0.893v-9.527c0-0.053-0.007-0.093-0.020-0.119l-11.413-9.409z"></path>
<path fill="#fff" d="M31.779 15.673l-4.347-3.612v-8.098c0-0.185-0.059-0.337-0.179-0.457s-0.271-0.179-0.456-0.179h-3.811c-0.185 0-0.338 0.059-0.457 0.179s-0.178 0.271-0.178 0.457v3.87l-4.843-4.049c-0.423-0.344-0.926-0.516-1.508-0.516s-1.085 0.172-1.508 0.516l-14.271 11.889c-0.132 0.106-0.205 0.248-0.218 0.427s0.033 0.334 0.139 0.467l1.231 1.469c0.106 0.119 0.245 0.192 0.417 0.218 0.159 0.013 0.318-0.033 0.477-0.139l13.735-11.453 13.735 11.453c0.106 0.092 0.245 0.138 0.417 0.138h0.060c0.172-0.026 0.31-0.099 0.417-0.218l1.231-1.469c0.106-0.133 0.152-0.288 0.138-0.467s-0.086-0.32-0.218-0.426z"></path>
</svg>
