<?xml version="1.0" encoding="utf-8"?>
<!-- Generated by IcoMoon.io -->
<svg version="1.1" xmlns="http://www.w3.org/2000/svg" xmlns:xlink="http://www.w3.org/1999/xlink" width="80" height="16" viewBox="0 0 80 16">
<svg id="icon-user" width="24" height="24" viewBox="0 0 24 24" x="48" y="0">
<path fill="#fff" d="M9.941 1.317l-1.053-0.15-0.469-0.928c-0.159-0.316-0.678-0.316-0.837 0l-0.469 0.928-1.053 0.15c-0.386 0.055-0.541 0.533-0.257 0.804l0.756 0.719-0.178 1.013c-0.067 0.381 0.333 0.674 0.676 0.498l0.944-0.485 0.944 0.485c0.348 0.179 0.742-0.121 0.676-0.498l-0.178-1.013 0.756-0.719c0.283-0.27 0.129-0.749-0.257-0.804z"></path>
<path fill="#fff" d="M15.597 4.176l-1.053-0.15-0.469-0.928c-0.159-0.316-0.678-0.316-0.837 0l-0.469 0.928-1.053 0.15c-0.386 0.055-0.541 0.533-0.257 0.804l0.756 0.719-0.178 1.013c-0.067 0.381 0.333 0.674 0.676 0.498l0.944-0.485 0.944 0.485c0.349 0.179 0.742-0.123 0.676-0.498l-0.178-1.013 0.756-0.719c0.283-0.27 0.129-0.749-0.257-0.804z"></path>
<path fill="#fff" d="M4.285 4.176l-1.053-0.15-0.469-0.928c-0.159-0.316-0.678-0.316-0.837 0l-0.469 0.928-1.053 0.15c-0.386 0.055-0.541 0.533-0.257 0.804l0.756 0.719-0.178 1.013c-0.067 0.381 0.333 0.674 0.676 0.498l0.944-0.485 0.944 0.485c0.348 0.179 0.742-0.122 0.676-0.498l-0.178-1.013 0.756-0.719c0.283-0.271 0.129-0.749-0.257-0.804z"></path>
<path fill="#fff" d="M9.69 10.262c0.678-0.514 1.123-1.32 1.123-2.234 0-1.551-1.262-2.813-2.813-2.813s-2.813 1.262-2.813 2.813c0 0.914 0.445 1.72 1.123 2.234-1.486 0.653-2.529 2.135-2.529 3.86v1.406c0 0.259 0.21 0.469 0.469 0.469h7.5c0.259 0 0.469-0.21 0.469-0.469v-1.406c0-1.725-1.043-3.207-2.529-3.86z"></path>
</svg>
<svg id="icon-home" width="24" height="24" viewBox="0 0 24 24" x="32" y="0">
<path fill="#fff" d="M8 4.204l-5.706 4.704c0 0.007-0.002 0.016-0.005 0.030s-0.005 0.023-0.005 0.030v4.764c0 0.172 0.063 0.321 0.189 0.447s0.275 0.189 0.447 0.189h3.811v-3.811h2.541v3.811h3.811c0.172 0 0.321-0.063 0.447-0.189s0.189-0.275 0.189-0.447v-4.764c0-0.026-0.004-0.046-0.010-0.059l-5.707-4.704z"></path>
<path fill="#fff" d="M15.89 7.836l-2.173-1.806v-4.049c0-0.093-0.030-0.169-0.089-0.228s-0.135-0.089-0.228-0.089h-1.905c-0.093 0-0.169 0.030-0.228 0.089s-0.089 0.136-0.089 0.228v1.935l-2.421-2.025c-0.211-0.172-0.463-0.258-0.754-0.258s-0.543 0.086-0.754 0.258l-7.136 5.945c-0.066 0.053-0.102 0.124-0.109 0.213s0.016 0.167 0.069 0.233l0.615 0.734c0.053 0.060 0.122 0.096 0.208 0.109 0.079 0.007 0.159-0.017 0.238-0.069l6.867-5.726 6.868 5.726c0.053 0.046 0.122 0.069 0.208 0.069h0.030c0.086-0.013 0.155-0.050 0.208-0.109l0.615-0.734c0.053-0.066 0.076-0.144 0.069-0.233s-0.043-0.16-0.109-0.213z"></path>
</svg>
<svg id="icon-about-us" width="24" height="24" viewBox="0 0 24 24" x="64" y="0">
<path fill="#fff" d="M7.998 7.563c1.183 0 2.134-0.956 2.134-2.132 0.001-1.179-0.951-2.133-2.134-2.133-1.175 0-2.129 0.954-2.129 2.133 0 1.177 0.954 2.132 2.129 2.132z"></path>
<path fill="#fff" d="M9.71 7.91h-3.418c-0.611 0-1.112 0.56-1.112 1.248v3.433c0 0.038 0.019 0.071 0.021 0.111h5.597c0.004-0.039 0.020-0.073 0.020-0.111v-3.433c0.002-0.687-0.499-1.248-1.108-1.248z"></path>
<path fill="#fff" d="M13.738 8.581c0.95 0 1.711-0.764 1.711-1.708s-0.761-1.71-1.711-1.71c-0.943 0-1.706 0.766-1.706 1.71-0.002 0.943 0.763 1.708 1.706 1.708z"></path>
<path fill="#fff" d="M15.111 8.859h-2.739c-0.492 0-0.893 0.449-0.893 1.002v2.751c0 0.030 0.014 0.058 0.016 0.090h4.489c0.002-0.032 0.016-0.060 0.016-0.090v-2.751c0.002-0.553-0.399-1.002-0.889-1.002z"></path>
<path fill="#fff" d="M2.26 8.581c0.948 0 1.71-0.764 1.71-1.708s-0.762-1.71-1.71-1.71c-0.943 0-1.706 0.766-1.706 1.71s0.763 1.708 1.706 1.708v0z"></path>
<path fill="#fff" d="M3.632 8.859h-2.742c-0.49 0-0.891 0.449-0.891 1.002v2.751c0 0.030 0.014 0.058 0.017 0.090h4.489c0.002-0.032 0.015-0.060 0.015-0.090v-2.751c0.001-0.553-0.4-1.002-0.889-1.002z"></path>
</svg>
<svg id="icon-contact" width="24" height="24" viewBox="0 0 24 24" x="0" y="0">
<path fill="#fff" d="M15.893 3.742l-3.635-3.635c-0.044-0.044-0.155-0.107-0.258-0.107h-10.545c-0.802 0-1.455 0.652-1.455 1.455v13.091c0 0.802 0.652 1.455 1.455 1.455h13.091c0.802 0 1.455-0.652 1.455-1.455v-10.545c-0-0.096-0.044-0.194-0.107-0.258zM8 2.909c1.403 0 2.545 1.142 2.545 2.545s-1.142 2.545-2.545 2.545-2.545-1.142-2.545-2.545c0-1.403 1.142-2.545 2.545-2.545zM13.091 12.045c0 0.576-0.466 1.045-1.039 1.045h-8.104c-0.573 0-1.039-0.469-1.039-1.045v-0.333c0-0.821 0.453-1.566 1.182-1.945 0.916-0.475 2.337-1.041 3.909-1.041s2.993 0.566 3.909 1.041c0.729 0.378 1.182 1.123 1.182 1.945v0.333zM13.091 3.636c-0.401 0-0.727-0.326-0.727-0.727v-1.668l2.395 2.395h-1.668z"></path>
</svg>

</svg>
